PathFileType	4	(X/Y/Z)	C:/Users/beibeiliu/ov580/test_trc/User2\sequence.43_training_dense_left.trc
DataRate	CameraRate	NumFrames	NumMarkers	Units	OrigDataRate	OrigDataStartFrame	OrigNumFrames
120	120	18	19	mm	120	81	107
Frame#	Time	ThumbCMC			ThumbMCP			ThumbIP			ThumbTip			IndexMCP			IndexPIP			IndexTip			MiddleMCP			MiddlePIP			MiddleTip			RingMCP			RingPIP			RingTip			PinkyMCP			PinkyPIP			PinkyTip			BackHand1			BackHand2			BackHand3	
		X0	Y0	Z0	X1	Y1	Z1	X2	Y2	Z2	X3	Y3	Z3	X4	Y4	Z4	X5	Y5	Z5	X6	Y6	Z6	X7	Y7	Z7	X8	Y8	Z8	X9	Y9	Z9	X10	Y10	Z10	X11	Y11	Z11	X12	Y12	Z12	X13	Y13	Z13	X14	Y14	Z14	X15	Y15	Z15	X16	Y16	Z16	X17	Y17	Z17	X18	Y18	Z18	
80	0.666667	-187.137	39.0918	29.5718	-161	37.5602	3.31836	-153.458	42.1229	-32.3377	-165.813	39.9764	-57.5055	-205.673	106.563	-15.9616	-197.443	124.748	-42.2915	-179.067	121.092	-68.9203	-212.459	79.5392	-48.1853	-191.949	55.5726	-68.9179	-184.202	26.33	-46.0233	-219.273	54.3623	-52.2291	-200.275	30.3959	-55.0846	-201.632	21.3481	-17.2743	-232.87	31.9462	-52.6608	-210.506	15.0635	-40.3293	-217.969	14.4546	-8.63557	-254.754	55.4713	-0.230557	-255.205	36.0944	32.6161	-226.248	59.2735	33.0921	
81	0.675	-182.717	36.2835	30.58	-161.866	34.8021	-0.540514	-151.391	38.7575	-34.1923	-165.544	37.6274	-60.0961	-202.584	102.522	-14.4492	-197.989	122.49	-38.8793	-183.122	119.57	-70.9266	-208.316	80.2272	-47.1924	-189.278	56.6137	-68.2712	-188.372	21.7808	-47.0989	-221.548	52.6248	-53.0401	-204.24	26.7574	-56.869	-203.844	19.7624	-16.8337	-230.553	34.9761	-50.5549	-211.281	13.4898	-40.3015	-220.997	12.3385	-7.48339	-254.121	53.5011	1.84119	-258.645	34.5404	29.7674	-224.87	57.7021	31.4428	
82	0.683333	-183.449	35.1155	29.3724	-163.62	30.7671	1.64421	-152.467	35.0061	-36.0386	-168.241	36.1904	-59.3381	-200.979	102.474	-14.2146	-194.717	121.711	-38.6189	-184.898	118.747	-70.669	-210.472	79.1148	-45.4285	-190.207	52.483	-68.856	-188.259	20.482	-46.0149	-220.468	52.2638	-54.6936	-205.247	25.0691	-56.9931	-203.075	19.34	-19.6973	-235.72	35.6312	-49.2226	-213.249	10.4717	-42.7367	-219.728	11.0592	-11.1725	-249.91	56.5496	1.55351	-256	36.425	32.3274	-226.039	56.4076	33.2131	
83	0.691667	-185.765	32.2885	30.6162	-160.444	30.7003	0.207942	-153.503	33.9176	-34.3447	-167.117	35.0282	-61.2777	-200.428	100.473	-14.5706	-195.444	120.459	-41.0793	-182.872	118.062	-71.0431	-210.712	78.5621	-50.7349	-193.736	52.7897	-70.2803	-189.258	21.654	-48.64	-220.895	52.8396	-54.1251	-204.225	25.4455	-57.7037	-206.426	16.4619	-20.1129	-236.205	33.4782	-51.2676	-215.296	8.6436	-44.2106	-218.054	13.3502	-10.2954	-252.313	53.8396	-0.218607	-258.704	33.833	29.9486	-224.714	57.5639	31.5594	
84	0.7	-183.491	35.8692	28.0907	-160.569	31.7586	-1.92342	-148.515	33.6967	-35.927	-166.054	33.364	-61.8302	-200.845	100.2	-14.5109	-194.936	119.366	-45.4102	-180.441	114.724	-70.9464	-206.882	78.9979	-49.814	-193.842	54.8487	-71.721	-186.05	21.466	-48.2153	-221.22	51.4324	-56.3385	-201.891	24.2787	-54.7236	-205.372	18.2992	-18.9833	-232.343	35.5033	-52.3441	-215.055	8.86935	-44.1	-216.568	12.9347	-11.5735	-253.786	56.0636	0.0372556	-256.985	34.0679	32.2818	-223.321	58.5521	31.8354	
85	0.708333	-182.722	33.6018	29.0797	-163.376	31.3904	-2.51988	-153.49	32.0568	-35.278	-167.329	34.0689	-62.1218	-201.276	101.264	-17.3617	-195.326	117.32	-42.1023	-180.546	106.034	-72.3445	-208.788	80.7417	-47.7196	-191.512	54.3774	-70.9451	-187.276	23.5607	-50.7271	-223.374	51.784	-57.2419	-202.462	26.8657	-56.9587	-208.132	17.1292	-20.2855	-235.276	33.6898	-55.2742	-215.281	11.3411	-45.3163	-220.231	11.4483	-9.21427	-253.079	54.2538	2.07822	-255.085	38.512	31.0864	-222.062	56.5758	33.9259	
86	0.716667	-183.59	33.1808	29.2146	-160.634	31.3135	-1.94612	-148.031	31.9809	-33.6001	-167.923	36.8239	-63.3329	-199.91	99.6536	-17.7554	-188.587	116.159	-46.7066	-176.211	91.9015	-71.8296	-212.705	82.3822	-46.376	-195.286	62.1416	-71.5563	-190.674	23.9995	-49.7179	-222.189	55.9746	-54.9336	-206.098	27.0698	-57.7287	-207.042	17.7858	-25.9628	-235.54	39.3719	-51.3469	-213.957	15.1997	-43.6385	-220.134	11.6513	-13.1708	-251.375	54.2495	4.55523	-253.463	41.1982	32.998	-219.762	59.202	34.4467	
87	0.725	-180.196	32.6909	29.6588	-156.764	31.861	-1.02787	-151.169	35.6128	-34.0062	-162.23	39.5366	-62.1847	-195.363	102.328	-20.7309	-186.237	108.329	-50.9305	-175.311	75.6136	-65.4803	-207.732	89.1051	-44.7127	-193.453	67.7637	-70.4771	-191.436	33.5006	-52.0736	-226.051	62.8727	-54.4373	-207.837	37.5731	-62.482	-207.482	22.7832	-27.9324	-237.433	44.6583	-49.4463	-217.827	16.288	-46.4036	-220.876	14.3449	-15.638	-250.433	59.2336	7.41911	-253.576	38.8057	37.3438	-218.173	59.209	35.4569	
88	0.733333	-178.51	33.8113	28.3703	-157.814	32.2991	0.115733	-146.792	39.1094	-36.9655	-167.276	43.9543	-60.4595	-191.356	98.7806	-22.3387	-179.478	94.8266	-56.3577	-178.522	61.3861	-57.3687	-208.926	92.874	-44.0471	-196.763	68.964	-68.0481	-193.575	38.2371	-47.9473	-227.979	70.8282	-49.6688	-211.379	48.0723	-63.6566	-210.029	27.9882	-33.1883	-238.771	52.7169	-47.6381	-220.619	26.2031	-49.6816	-222.234	16.6912	-19.2505	-246.232	62.8805	12.9114	-252.236	43.1759	38.5577	-213.289	61.9513	34.287	
89	0.741667	-178.523	33.4813	27.907	-157.955	34.1068	-0.624605	-152.558	41.7286	-36.2393	-166.49	46.8721	-58.6824	-186.541	97.4646	-24.2378	-177.416	85.2153	-54.5239	-175.204	50.3874	-45.3368	-205.699	94.8471	-40.5444	-193.107	69.743	-63.0335	-196.599	38.9907	-38.9649	-222.849	77.2226	-47.1052	-211.897	51.1605	-62.2118	-208.587	33.2751	-30.6549	-242.042	57.813	-44.6746	-221.198	30.3997	-48.1628	-220.386	24.7191	-15.4618	-246.628	65.105	13.8558	-251.798	44.1576	40.7493	-211.5	62.6955	37.9763	
90	0.75	-175.397	32.2345	30.3503	-159.659	35.2242	-2.64098	-153.217	44.804	-40.8988	-176.855	52.4681	-58.4612	-185.653	97.162	-22.2031	-176.223	84.0125	-51.7299	-178.585	47.8859	-36.5462	-204.003	92.9823	-34.0288	-193.576	69.158	-59.4526	-196.079	38.8301	-29.2438	-220.63	78.3408	-42.2772	-208.697	50.2355	-57.3434	-211.408	32.7311	-21.3529	-237.551	58.4285	-46.1174	-218.779	33.7047	-45.8855	-219.659	25.9801	-15.2008	-240.209	66.8032	16.6629	-249.851	45.1679	38.9604	-209.291	62.3717	42.2838	
91	0.758333	-175.339	34.5141	30.0227	-157.229	36.9488	-4.60986	-157.101	45.6024	-40.5423	-180.379	52.9731	-58.3687	-179.644	96.7092	-25.3271	-175.17	78.1372	-48.6309	-178.07	47.0241	-30.2154	-200.581	91.7001	-32.5259	-189.326	59.9813	-53.461	-195.122	37.5479	-21.5304	-216.529	73.9321	-46.6596	-208.464	45.5896	-52.5469	-211.274	32.3717	-17.9035	-235.535	60.1235	-40.1788	-219.234	29.502	-40.6478	-223.348	24.1915	-7.25802	-240.847	69.5792	16.5487	-248.087	47.6191	40.5363	-210.969	63.1336	39.7591	
92	0.766667	-176.736	34.0409	31.1065	-161.65	36.466	-2.65325	-161.84	48.8103	-40.9186	-186.683	53.971	-55.4444	-181.896	93.977	-20.7759	-173.15	72.2747	-45.4732	-179.751	46.2671	-24.8442	-202.505	88.2171	-34.3909	-190.941	56.9914	-49.4956	-193.683	37.9989	-12.7106	-217.024	69.6165	-43.8737	-205.524	39.479	-45.199	-207.684	31.5158	-11.7414	-232.818	56.5595	-41.9018	-216.641	27.595	-36.0469	-222.736	26.7124	-1.72055	-244.14	67.7644	15.1169	-247.897	43.5525	43.3684	-215.499	59.7596	41.9814	
93	0.775	-178.135	33.6324	32.1449	-161.183	38.6071	-4.12641	-163.491	45.2014	-37.0346	-184.085	53.217	-58.429	-177.887	93.1759	-17.8752	-169.714	69.8099	-41.8563	-177.324	43.2977	-14.7772	-196.126	84.4006	-35.0833	-186.919	53.6229	-45.9677	-196.981	37.3565	-9.26748	-213.679	64.0689	-43.5625	-203.525	37.3867	-41.7928	-207.483	32.6323	-3.76434	-227.345	54.7598	-38.9997	-213.781	24.9638	-30.6297	-223.98	26.2694	2.11116	-240.245	68.7454	17.6042	-245.435	43.8234	41.9447	-213.741	61.2308	44.3964	
94	0.783333	-180.346	33.8357	32.9341	-157.639	36.2884	-3.91207	-162.556	46.9915	-41.2205	-185.984	51.1355	-55.2468	-175.566	90.4956	-21.3129	-172.266	66.5777	-40.6919	-177.773	43.9616	-14.1343	-194.288	83.5672	-34.2304	-184.247	50.1166	-42.2978	-197.265	37.4995	-4.50902	-212.127	63.4248	-41.2411	-200.843	36.263	-38.981	-211.324	31.194	-0.797311	-226.379	52.2096	-37.8909	-217.896	21.802	-31.5603	-224.278	22.378	4.09981	-238.942	66.0551	17.0538	-247.823	44.2059	42.6225	-214.999	60.7456	42.861	
95	0.791667	-179.326	33.837	31.7569	-158.429	34.0643	-3.27503	-165.523	46.5178	-39.3531	-186.229	50.5743	-58.4328	-176.421	89.8461	-23.6536	-172.86	63.1883	-40.1373	-181.275	43.4515	-9.40931	-198.129	82.1815	-35.511	-185.835	52.0757	-44.859	-197.803	37.5127	-5.54446	-213.711	61.9283	-41.5818	-203.792	35.313	-39.8777	-210.554	30.2506	-4.14247	-231.452	51.7773	-38.8356	-216.948	19.6607	-26.0266	-222.719	24.4432	4.72792	-241.746	69.1001	15.188	-245.82	42.4862	41.7613	-209.981	62.7285	45.0844	
96	0.8	-177.569	34.2843	30.0629	-161.286	36.6988	-4.9124	-163.401	46.6194	-44.1144	-189.652	51.7197	-56.4876	-176.698	89.4153	-21.3526	-168.081	62.7634	-40.063	-179.694	41.6846	-10.0072	-199.374	82.2673	-31.9836	-189.167	49.3264	-44.4459	-196.323	35.4563	-8.39422	-210.735	64.1209	-40.5182	-201.771	33.7295	-38.0005	-210.624	30.6628	-3.56019	-226.847	50.732	-39.1589	-216.068	21.7723	-26.7491	-225.559	21.7056	2.93886	-241.507	68.0087	15.2841	-248.776	45.7495	41.6404	-208.717	59.0236	45.0739	
97	0.808333	-177.546	32.0068	29.955	-158.749	33.1766	-4.59439	-163.295	41.8088	-38.8201	-187.845	51.9767	-58.5709	-174.943	89.4624	-20.0096	-168.628	60.4041	-42.0871	-177.563	39.6233	-12.39	-199.993	81.2306	-33.8897	-188.109	47.735	-45.3475	-193.509	33.3882	-9.26189	-212.057	64.2629	-41.0447	-205.931	33.2095	-41.3383	-210.962	28.0772	-5.13511	-228.675	52.0965	-39.3324	-215.293	21.9618	-28.7868	-223.401	20.44	3.25794	-237.156	69.4791	17.8619	-247.089	41.5922	43.3802	-209.206	61.1761	41.5668	
